# xmcd
#
# Track frame offsets:
#	150
#	20112
#	46507
#	71550
#	95600
#	124937
#	143337
#	165500
#	192937
#	213900
#	230617
#	253912
#
# Disc length: 3789 seconds
#
# Revision: 5
# Processed by: cddbd v1.5.2PL0 Copyright (c) Steve Scherf et al.
# Submitted via: audiograbber 1.83.01
#
DISCID=a40ecb0c
DTITLE=Cohen, Leonard - Field Commander Cohen - Tour of 1979
DYEAR=1979
DGENRE=Rock
TTITLE0=Field Commander Cohen
TTITLE1=The window
TTITLE2=The smokey life
TTITLE3=The gypsy's wife
TTITLE4=Lover lover lover
TTITLE5=Hey, that's no way to say goodbye
TTITLE6=The stranger song
TTITLE7=The guests
TTITLE8=Memories
TTITLE9=Why don't you try
TTITLE10=Bird on the wire
TTITLE11=So long, Marianne
EXTD=
EXTT0=
EXTT1=
EXTT2=
EXTT3=
EXTT4=
EXTT5=
EXTT6=
EXTT7=
EXTT8=
EXTT9=
EXTT10=
EXTT11=
PLAYORDER=
